<mxfile host="app.diagrams.net" modified="2022-02-04T03:10:11.442Z" agent="5.0 (Windows)" etag="UKJ1yn5fyECkaoZxi14o" version="16.5.3" type="github">
  <diagram id="AQmFtdb-48D0sf52jWtz" name="Page-1">
    <mxGraphModel dx="2942" dy="1140" grid="1" gridSize="10" guides="1" tooltips="1" connect="1" arrows="1" fold="1" page="1" pageScale="1" pageWidth="1100" pageHeight="850" math="0" shadow="0">
      <root>
        <mxCell id="0" />
        <mxCell id="1" parent="0" />
        <mxCell id="5m723kR_LKD_G_zbwTLp-1" value="Project" style="rounded=1;whiteSpace=wrap;html=1;" parent="1" vertex="1">
          <mxGeometry x="420" y="60" width="240" height="60" as="geometry" />
        </mxCell>
      </root>
    </mxGraphModel>
  </diagram>
</mxfile>
